<svg width="18" height="18" viewBox="0 0 18 18" fill="none" xmlns="http://www.w3.org/2000/svg">
<path d="M15.7832 10.127L15.7871 10.1289C15.8477 9.75977 15.877 9.38281 15.877 9.00976C15.877 8.67578 15.8516 8.33984 15.8047 8.01172C15.8516 8.33789 15.875 8.66797 15.875 8.99805C15.875 9.37695 15.8438 9.75586 15.7832 10.127ZM0.933594 6.77539C0.923828 6.76758 0.916016 6.75977 0.90625 6.75C0.919922 6.76367 0.933594 6.77734 0.949219 6.79102L2.22852 7.88281V7.88086L0.933594 6.77539ZM11.4141 2.55664H11.416L11.1133 0.919922C11.1094 0.900391 11.1055 0.882812 11.0996 0.865234C11.1016 0.875 11.1055 0.886719 11.1074 0.896484L11.4141 2.55664ZM12.4688 13.2305L13.082 12.7266L14.8945 13.3691C15.2266 12.9219 15.5059 12.4414 15.7266 11.9316L14.2676 10.6836L14.3965 9.90039C14.4453 9.60547 14.4707 9.30273 14.4707 9C14.4707 8.69727 14.4453 8.39453 14.3965 8.09961L14.2695 7.32031L15.7285 6.07227C15.5059 5.56445 15.2285 5.08203 14.8965 4.63477L13.084 5.27734L12.4707 4.77344C12.0039 4.39062 11.4824 4.08984 10.9219 3.87891L10.1777 3.59961L9.82813 1.70508C9.27651 1.64258 8.71959 1.64258 8.16797 1.70508L7.81836 3.60352L7.07813 3.88281C6.52148 4.09375 6.00391 4.39453 5.54102 4.77539L4.92773 5.28125L3.10352 4.63281C2.77148 5.08008 2.49219 5.56055 2.27148 6.07031L3.74609 7.33008L3.61914 8.11133C3.57031 8.40234 3.54688 8.70117 3.54688 9C3.54688 9.29688 3.57227 9.59766 3.61914 9.88867L3.74609 10.6699L2.27148 11.9297C2.49414 12.4375 2.77148 12.9199 3.10352 13.3672L4.92773 12.7187L5.54102 13.2246C6.00391 13.6055 6.52148 13.9062 7.07813 14.1172L7.81641 14.4004L8.16602 16.2988C8.7168 16.3613 9.27734 16.3613 9.82617 16.2988L10.1758 14.4043L10.9199 14.125C11.4824 13.9141 12.002 13.6133 12.4688 13.2305ZM9.00977 12.248C8.41406 12.248 7.85352 12.0957 7.36328 11.8281C6.29102 11.2461 5.5625 10.1113 5.5625 8.80469C5.5625 6.90625 7.10156 5.36719 9 5.36719C10.3066 5.36719 11.4414 6.0957 12.0234 7.16797C12.291 7.65625 12.4434 8.2168 12.4434 8.81445C12.4434 10.7109 10.9062 12.248 9.00977 12.248ZM3.04688 14.875C2.93945 14.9121 2.82813 14.9199 2.72266 14.8984C2.83398 14.9219 2.95117 14.918 3.06445 14.8789L4.6543 14.3125C4.65234 14.3105 4.64844 14.3086 4.64648 14.3066L3.04688 14.875ZM17.0625 6.77539L15.7832 7.86914C15.7832 7.87305 15.7852 7.87891 15.7852 7.88281L17.0625 6.79102C17.2012 6.67187 17.2793 6.5 17.2813 6.32227C17.2754 6.49414 17.1973 6.66016 17.0625 6.77539Z" fill="#FFCC01"/>
<path d="M17.2773 11.6289C17.2871 11.7207 17.2773 11.8145 17.2441 11.9043L17.2265 11.9551C16.8734 12.939 16.3461 13.8513 15.6699 14.6484L15.6347 14.6895C15.5528 14.7863 15.4433 14.8559 15.3209 14.8891C15.1984 14.9222 15.0688 14.9173 14.9492 14.875L13.3613 14.3105C12.7787 14.7905 12.1208 15.1706 11.414 15.4355L11.1074 17.0957C11.0842 17.2206 11.0236 17.3355 10.9336 17.4252C10.8436 17.5149 10.7285 17.575 10.6035 17.5977L10.5507 17.6074C10.0403 17.6997 9.52259 17.7461 9.00386 17.7461H9.00972C9.5312 17.7461 10.0527 17.6992 10.5605 17.6074L10.6132 17.5977C10.7382 17.575 10.8534 17.5149 10.9434 17.4252C11.0334 17.3355 11.094 17.2206 11.1171 17.0957L11.4238 15.4375C12.1308 15.1719 12.7832 14.7949 13.3691 14.3145L14.955 14.8789C15.0746 14.9212 15.2043 14.9261 15.3267 14.893C15.4492 14.8598 15.5586 14.7902 15.6406 14.6934L15.6757 14.6523C16.3554 13.8496 16.8769 12.9453 17.2304 11.9629L17.248 11.9121C17.2792 11.8203 17.289 11.7227 17.2773 11.6289Z" fill="#FFCC01"/>
</svg>
